<svg width="34" height="34" viewBox="0 0 34 34" fill="none" xmlns="http://www.w3.org/2000/svg">
<g clip-path="url(#clip0_391_25)">
<path d="M16.988 34C16.8167 34 16.6441 33.9589 16.488 33.8752L0.562439 25.3757C0.215148 25.1897 0 24.8298 0 24.4373V9.2081C0 8.83821 0.192571 8.49555 0.507324 8.30164C0.826061 8.10906 1.21718 8.09511 1.54588 8.2618L17.4715 16.408C17.8267 16.5893 18.0512 16.9545 18.0512 17.3543V32.9382C18.0512 33.3121 17.8559 33.658 17.5352 33.8493C17.3665 33.9496 17.178 34.0007 16.9887 34.0007L16.988 34ZM2.12492 23.7998L15.9256 31.1664V18.0038L2.12492 10.9453V23.8005V23.7998Z" fill="white"/>
<path d="M17.0106 34C16.8207 34 16.6321 33.9489 16.4641 33.8486C16.144 33.6573 15.9481 33.3113 15.9481 32.9375V17.3536C15.9481 16.9538 16.1719 16.5886 16.5278 16.4073L32.4534 8.26109C32.7834 8.09374 33.1759 8.10835 33.492 8.30093C33.808 8.49351 33.9993 8.83817 33.9993 9.20739V24.4366C33.9993 24.8291 33.7841 25.189 33.4368 25.3743L17.5113 33.8745C17.3539 33.9582 17.1826 33.9993 17.0112 33.9993L17.0106 34ZM18.073 18.0044V31.167L31.8737 23.8005V10.9453L18.073 18.0044Z" fill="white"/>
<path d="M32.9362 10.2706C32.7735 10.2706 32.6089 10.2341 32.4535 10.1544L17.0106 2.25521L1.5459 10.1544C1.02463 10.422 0.3845 10.2142 0.11623 9.69086C-0.150049 9.16824 0.0564662 8.5294 0.579727 8.26111L16.5279 0.115559C16.8327 -0.0391707 17.1926 -0.0391707 17.4954 0.115559L33.421 8.26177C33.9436 8.5294 34.1508 9.16956 33.8845 9.69153C33.6946 10.0601 33.322 10.2713 32.9369 10.2713L32.9362 10.2706Z" fill="white"/>
<path d="M24.7904 22.3122C24.2041 22.3122 23.728 21.8361 23.728 21.2497V14.1136L8.12313 6.30536C7.5992 6.04172 7.38671 5.40288 7.64834 4.87893C7.91196 4.35497 8.5521 4.1438 9.07336 4.40411L25.2652 12.5078C25.6265 12.6891 25.8529 13.0564 25.8529 13.4581V21.2497C25.8529 21.8361 25.3768 22.3122 24.7904 22.3122Z" fill="white"/>
</g>
<defs>
<clipPath id="clip0_391_25">
<rect width="34" height="34" fill="white"/>
</clipPath>
</defs>
</svg>
