<svg width="35" height="24" viewBox="0 0 35 24" fill="none" xmlns="http://www.w3.org/2000/svg">
<g clip-path="url(#clip0_391_38)">
<path d="M31.1719 0H3.82812C1.71719 0 0 1.71273 0 3.81818V20.1818C0 22.2873 1.71719 24 3.82812 24H31.1719C33.2828 24 35 22.2873 35 20.1818V3.81818C35 1.71273 33.2828 0 31.1719 0ZM3.82812 2.18182H31.1719C32.0763 2.18182 32.8125 2.91614 32.8125 3.81818V6H2.1875V3.81818C2.1875 2.91614 2.92373 2.18182 3.82812 2.18182ZM31.1719 21.8182H3.82812C2.92373 21.8182 2.1875 21.0839 2.1875 20.1818V8.18182H32.8125V20.1818C32.8125 21.0839 32.0763 21.8182 31.1719 21.8182Z" fill="white"/>
<path d="M7.65625 18.5454H6.5625C5.9582 18.5454 5.46875 18.0573 5.46875 17.4545V16.3636C5.46875 15.7609 5.9582 15.2727 6.5625 15.2727H7.65625C8.26055 15.2727 8.75 15.7609 8.75 16.3636V17.4545C8.75 18.0573 8.26055 18.5454 7.65625 18.5454Z" fill="white"/>
</g>
<defs>
<clipPath id="clip0_391_38">
<rect width="35" height="24" fill="white"/>
</clipPath>
</defs>
</svg>
