<svg width="41" height="41" viewBox="0 0 41 41" fill="none" xmlns="http://www.w3.org/2000/svg">
<g clip-path="url(#clip0_391_14)">
<path d="M37.1353 3.86466C31.9831 -1.28757 23.5989 -1.28757 18.4467 3.86466C14.9272 7.38409 13.7052 12.5708 15.2291 17.2761L0.351421 32.1531C0.126401 32.3781 -0.00012207 32.684 -0.00012207 33.0027V39.7989C-0.00012207 40.4628 0.538003 41.0001 1.20105 41.0001H7.99728C8.31599 41.0001 8.62109 40.8736 8.84691 40.6485L10.5462 38.9493C10.8056 38.6898 10.9321 38.3255 10.8897 37.9611L10.6775 36.1369L13.2064 35.8983C13.7805 35.8439 14.2354 35.389 14.2898 34.8149L14.5285 32.2852L16.3534 32.4974C16.6938 32.5374 17.0349 32.4293 17.2911 32.2011C17.5474 31.9729 17.6931 31.647 17.6931 31.3042V29.0668H19.8897C20.206 29.0668 20.5095 28.9419 20.7345 28.7201L23.719 25.77C28.4252 27.2955 33.6151 26.0735 37.1353 22.5533C42.2875 17.4011 42.2875 9.01688 37.1353 3.86466ZM35.4361 20.854C32.4035 23.8858 27.8551 24.8323 23.8487 23.2652C23.4067 23.0922 22.9038 23.1963 22.5667 23.5294L19.3964 26.6637H16.492C15.8281 26.6637 15.2908 27.2018 15.2908 27.8649V29.9541L13.5867 29.7563C13.2656 29.7195 12.9429 29.8124 12.6923 30.0158C12.4408 30.2192 12.2823 30.5147 12.2518 30.8366L11.9916 33.5985L9.22968 33.8587C8.90777 33.8891 8.61228 34.0477 8.40888 34.2992C8.20548 34.5506 8.11179 34.8725 8.14943 35.1936L8.43611 37.66L7.5 38.5969H2.40222V33.5L17.4649 18.4381C17.802 18.1009 17.9086 17.5957 17.734 17.1512C16.1669 13.1441 17.1134 8.59567 20.1451 5.56392C24.3612 1.3486 31.2199 1.3486 35.4361 5.56392C39.6514 9.77923 39.6514 16.6387 35.4361 20.8548V20.854Z" fill="white"/>
<path d="M33.7375 7.26228C32.3322 5.85691 30.0459 5.85691 28.6406 7.26228C27.2352 8.66765 27.2352 10.9539 28.6406 12.3593C30.0459 13.7646 32.3322 13.7646 33.7375 12.3593C35.1429 10.9539 35.1429 8.66765 33.7375 7.26228ZM32.0383 10.66C31.5698 11.1285 30.8075 11.1285 30.339 10.66C29.8706 10.1915 29.8706 9.42919 30.339 8.96074C30.8083 8.49148 31.5682 8.49148 32.0383 8.96074C32.5075 9.42999 32.5075 10.1899 32.0383 10.66Z" fill="white"/>
</g>
<defs>
<clipPath id="clip0_391_14">
<rect width="41" height="41" fill="white"/>
</clipPath>
</defs>
</svg>
