<svg width="30" height="30" viewBox="0 0 30 30" fill="none" xmlns="http://www.w3.org/2000/svg">
<g clip-path="url(#clip0_391_49)">
<mask id="mask0_391_49" style="mask-type:luminance" maskUnits="userSpaceOnUse" x="0" y="0" width="30" height="30">
<path d="M30 0H0V30H30V0Z" fill="white"/>
</mask>
<g mask="url(#mask0_391_49)">
<path fill-rule="evenodd" clip-rule="evenodd" d="M21.12 8.99992C21.12 5.68492 18.375 2.99992 15 2.99992C11.625 2.99992 8.88003 5.68492 8.88003 8.99992C8.88003 12.3149 11.625 14.9999 15 14.9999C18.375 14.9999 21.12 12.3149 21.12 8.99992ZM26.91 29.9999H24.18C23.34 29.9999 22.65 29.3249 22.65 28.4999C22.65 27.6749 23.34 26.9999 24.18 26.9999H24.84C25.905 26.9999 26.685 25.9499 26.28 24.9899C24.42 20.5499 20.07 17.9999 15 17.9999C9.93003 17.9999 5.56503 20.5499 3.72003 24.9899C3.31503 25.9499 4.09503 26.9999 5.16003 26.9999H5.82003C6.66003 26.9999 7.35003 27.6749 7.35003 28.4999C7.35003 29.3249 6.66003 29.9999 5.82003 29.9999H3.09003C1.17003 29.9999 -0.329974 28.2899 0.0750264 26.4599C1.18503 21.4199 4.66503 17.6999 9.25503 16.0199C7.17003 14.3699 5.82003 11.8499 5.82003 9.01492C5.82003 3.67492 10.53 -0.570076 16.095 0.0599244C20.13 0.524924 23.475 3.65992 24.075 7.60492C24.6 10.9949 23.175 14.0999 20.745 16.0049C25.335 17.6849 28.815 21.4049 29.925 26.4449C30.33 28.2749 28.83 29.9849 26.91 29.9849V29.9999ZM19.59 28.4999C19.59 29.3249 18.9 29.9999 18.06 29.9999H11.94C11.1 29.9999 10.41 29.3249 10.41 28.4999C10.41 27.6749 11.1 26.9999 11.94 26.9999H18.06C18.9 26.9999 19.59 27.6749 19.59 28.4999Z" fill="white"/>
</g>
<path d="M24.8251 27H5.82007V30H24.8251V27Z" fill="white"/>
</g>
<defs>
<clipPath id="clip0_391_49">
<rect width="30" height="30" fill="white"/>
</clipPath>
</defs>
</svg>
