<svg width="18" height="18" viewBox="0 0 18 18" fill="none" xmlns="http://www.w3.org/2000/svg">
<g clip-path="url(#clip0_7_4577)">
<path d="M9 0.28125C4.18465 0.28125 0.28125 4.18465 0.28125 9C0.28125 13.8154 4.18465 17.7188 9 17.7188C13.8154 17.7188 17.7188 13.8154 17.7188 9C17.7188 4.18465 13.8154 0.28125 9 0.28125ZM8.60133 8.72684C8.49973 8.89629 8.31656 9 8.11898 9H8.10809C7.95902 9 7.81594 9.05941 7.71047 9.16488L7.51148 9.36387C7.4018 9.47355 7.4018 9.6518 7.51148 9.76148L7.71047 9.96047C7.81594 10.0659 7.87535 10.209 7.87535 10.3581V10.6875C7.87535 10.9983 7.62363 11.25 7.31285 11.25H7.09805C6.885 11.25 6.69023 11.1298 6.59496 10.9389L5.79973 9.34875C5.71395 9.17719 5.48508 9.13992 5.34938 9.27563L4.66488 9.95977C4.55941 10.0652 4.41633 10.1246 4.26727 10.1246H2.06754C2.00813 9.75762 1.96875 9.38391 1.96875 9C1.96875 5.12297 5.12297 1.96875 9 1.96875C9.75621 1.96875 10.4836 2.09215 11.1667 2.31398L9.40324 3.66855C9.22359 3.78844 9.24047 4.05738 9.43348 4.15406L9.81422 4.34426C10.0048 4.43953 10.125 4.6343 10.125 4.84734V7.59375C10.125 7.74914 9.99914 7.875 9.84375 7.875H9.73617C9.62965 7.875 9.53227 7.81488 9.48481 7.71961C9.42996 7.60992 9.27527 7.60395 9.21199 7.70906L8.60133 8.72684ZM14.625 12.6011C14.625 12.7501 14.5656 12.8932 14.4601 12.9987L14.1237 13.3351C14.0182 13.4406 13.8751 13.5 13.7261 13.5H13.1931C13.044 13.5 12.9009 13.4406 12.7955 13.3351L12.3381 12.8777C12.2232 12.7628 12.0805 12.6796 11.9239 12.6363C11.7672 12.5929 11.6021 12.5908 11.4444 12.6302L10.6966 12.8173C10.652 12.8285 10.6063 12.8341 10.5602 12.8341H10.1967C10.0477 12.8341 9.90457 12.7747 9.7991 12.6693L9.38039 12.2505C9.32769 12.1977 9.2981 12.1262 9.29813 12.0516V11.693C9.29813 11.578 9.36809 11.4746 9.47496 11.4318L10.858 10.8784C10.9276 10.8506 10.9937 10.8144 11.0545 10.7712L11.8881 10.1774C11.9357 10.1435 11.9927 10.1253 12.0512 10.1254H12.4762C12.5898 10.1254 12.6925 10.1936 12.7361 10.2987L12.9241 10.7504C12.9348 10.776 12.9528 10.7979 12.9759 10.8133C12.999 10.8287 13.0261 10.8369 13.0539 10.8369H13.1875C13.25 10.8369 13.3052 10.7954 13.3225 10.7357L13.4701 10.227C13.4877 10.1668 13.5425 10.1257 13.6051 10.1257H13.8182C13.8959 10.1257 13.9588 10.1886 13.9588 10.2663V10.7209C13.9588 10.7954 13.9883 10.8671 14.0411 10.9199L14.4598 11.3386C14.5652 11.4441 14.6246 11.5871 14.6246 11.7362V12.6011H14.625Z" fill="white"/>
</g>
<defs>
<clipPath id="clip0_7_4577">
<rect width="18" height="18" fill="white"/>
</clipPath>
</defs>
</svg>
