<svg width="34" height="40" viewBox="0 0 34 40" fill="none" xmlns="http://www.w3.org/2000/svg">
<g clip-path="url(#clip0_287_119)">
<g clip-path="url(#clip1_287_119)">
<path d="M34.1531 8.36172L26.0707 0.335938C25.8543 0.121094 25.5623 0 25.2586 0H4.82476C2.44023 0 0.5 1.96172 0.5 4.37266V35.6273C0.5 38.0383 2.44023 40 4.82476 40H30.1752C32.5598 40 34.5 38.0383 34.5 35.6273V9.19766C34.5 8.88281 34.3748 8.58203 34.1531 8.36172ZM26.4176 3.96562L30.5067 8.02656H26.7862C26.583 8.02656 26.4176 7.85938 26.4176 7.65391V3.96562ZM30.1752 37.6562H4.82476C3.71826 37.6562 2.81808 36.7461 2.81808 35.6273V4.37266C2.81808 3.25391 3.71826 2.34375 4.82476 2.34375H24.0996V7.65312C24.0996 9.15078 25.305 10.3695 26.7862 10.3695H32.1819V35.6273C32.1819 36.7461 31.2817 37.6562 30.1752 37.6562Z" fill="white"/>
<path d="M25.5464 18.5938H9.20787C8.5673 18.5938 8.04883 19.118 8.04883 19.7656C8.04883 20.4133 8.5673 20.9375 9.20787 20.9375H25.5464C26.187 20.9375 26.7055 20.4133 26.7055 19.7656C26.7055 19.118 26.187 18.5938 25.5464 18.5938Z" fill="white"/>
<path d="M9.20787 25.625H22.5299C23.1704 25.625 23.6889 25.1008 23.6889 24.4531C23.6889 23.8055 23.1704 23.2812 22.5299 23.2812H9.20787C8.5673 23.2812 8.04883 23.8055 8.04883 24.4531C8.04883 25.1008 8.5673 25.625 9.20787 25.625Z" fill="white"/>
<path d="M24.1378 27.9688H9.20787C8.5673 27.9688 8.04883 28.493 8.04883 29.1406C8.04883 29.7883 8.5673 30.3125 9.20787 30.3125H24.1371C24.7768 30.3125 25.2961 29.7883 25.2961 29.1406C25.2961 28.493 24.7768 27.9688 24.1371 27.9688H24.1378Z" fill="white"/>
</g>
</g>
<defs>
<clipPath id="clip0_287_119">
<rect width="34" height="40" rx="5" fill="white"/>
</clipPath>
<clipPath id="clip1_287_119">
<rect width="34" height="40" fill="white" transform="translate(0.5)"/>
</clipPath>
</defs>
</svg>
