<svg width="46" height="43" viewBox="0 0 46 43" fill="none" xmlns="http://www.w3.org/2000/svg">
<path d="M44.9966 1.01621C44.5026 0.361133 43.7098 0 42.765 0C42.3211 0 41.8456 0.0797852 41.3516 0.237676L3.07938 12.4272C1.75744 12.8479 0.845963 13.7088 0.57964 14.788C0.312439 15.8672 0.724667 17.0262 1.70997 17.9685C1.80666 18.0608 1.91741 18.1381 2.03782 18.1977L18.1508 26.1343L26.4569 41.5303C26.5193 41.6462 26.6001 41.752 26.6968 41.8435C27.4888 42.6002 28.402 43 29.3381 43C30.7558 43 31.9661 42.0552 32.4962 40.5351L45.2541 3.96658C45.6549 2.81684 45.5635 1.76871 44.9957 1.01705L44.9966 1.01621ZM3.14618 15.3666C3.19628 15.1625 3.49073 14.9517 3.91351 14.8174L40.2397 3.24768L18.8794 23.6576L3.4503 16.0578C3.21825 15.7983 3.10311 15.5421 3.14618 15.3666ZM29.9955 39.7389C29.8707 40.0975 29.6325 40.4805 29.339 40.4805C29.1614 40.4805 28.9294 40.3704 28.6973 40.1815L20.7437 25.4389L42.1049 5.02814L29.9955 39.738V39.7389Z" fill="#111111"/>
</svg>
