<svg width="25" height="26" viewBox="0 0 25 26" fill="none" xmlns="http://www.w3.org/2000/svg">
<path d="M10.4168 19.25C12.2658 19.2496 14.0614 18.6307 15.5179 17.4917L20.097 22.0708L21.57 20.5979L16.9908 16.0187C18.1304 14.5621 18.7497 12.7661 18.7502 10.9167C18.7502 6.32187 15.0116 2.58333 10.4168 2.58333C5.82204 2.58333 2.0835 6.32187 2.0835 10.9167C2.0835 15.5115 5.82204 19.25 10.4168 19.25ZM10.4168 4.66666C13.8637 4.66666 16.6668 7.46979 16.6668 10.9167C16.6668 14.3635 13.8637 17.1667 10.4168 17.1667C6.96995 17.1667 4.16683 14.3635 4.16683 10.9167C4.16683 7.46979 6.96995 4.66666 10.4168 4.66666Z" fill="black"/>
</svg>
