<svg width="35" height="40" viewBox="0 0 35 40" fill="none" xmlns="http://www.w3.org/2000/svg">
<g clip-path="url(#clip0_287_125)">
<path d="M8.55352 40H26.446C29.3387 40 31.7585 37.8143 32.0773 34.9161L34.4909 13.0143C34.5361 12.6098 34.4077 12.2071 34.1385 11.9045C33.8711 11.6018 33.4868 11.4286 33.0831 11.4286H25.9998V8.57143C25.9998 3.84464 22.1872 0 17.4998 0C12.8124 0 8.99977 3.84464 8.99977 8.57143V11.4286H1.91644C1.51269 11.4286 1.12841 11.6018 0.861019 11.9045C0.591852 12.2071 0.464352 12.6116 0.508623 13.0143L2.92138 34.9161C3.2419 37.8143 5.66263 40 8.5544 40H8.55352ZM11.8331 8.57143C11.8331 5.41964 14.3742 2.85714 17.4998 2.85714C20.6253 2.85714 23.1664 5.41964 23.1664 8.57143V11.4286H11.8331V8.57143ZM8.99977 14.2857V17.1429C8.21794 17.1429 7.5831 17.783 7.5831 18.5714C7.5831 19.3598 8.21794 20 8.99977 20H11.8331C12.6149 20 13.2498 19.3598 13.2498 18.5714C13.2498 17.783 12.6149 17.1429 11.8331 17.1429V14.2857H23.1664V17.1429C22.3846 17.1429 21.7498 17.783 21.7498 18.5714C21.7498 19.3598 22.3846 20 23.1664 20H25.9998C26.7816 20 27.4164 19.3598 27.4164 18.5714C27.4164 17.783 26.7816 17.1429 25.9998 17.1429V14.2857H31.5009L29.2607 34.6018C29.1023 36.05 27.891 37.1429 26.446 37.1429H8.55352C7.10675 37.1429 5.89727 36.05 5.73701 34.6018L3.49867 14.2857H8.99977Z" fill="white"/>
</g>
<defs>
<clipPath id="clip0_287_125">
<rect x="0.5" width="34" height="40" rx="5" fill="white"/>
</clipPath>
</defs>
</svg>
