<svg width="32" height="38" viewBox="0 0 32 38" fill="none" xmlns="http://www.w3.org/2000/svg">
<path d="M8.00228 37.3752H23.9975C26.5834 37.3752 28.7467 35.3329 29.0316 32.6249L31.1894 12.1603C31.2297 11.7824 31.1149 11.4061 30.8743 11.1233C30.6353 10.8405 30.2918 10.6786 29.9308 10.6786H23.5986V8.00897C23.5986 3.59236 20.1903 0 15.9999 0C11.8095 0 8.40121 3.59236 8.40121 8.00897V10.6786H2.06898C1.70804 10.6786 1.36451 10.8405 1.12547 11.1233C0.884847 11.4061 0.770867 11.784 0.810443 12.1603L2.96736 32.6249C3.2539 35.3329 5.41794 37.3752 8.00307 37.3752H8.00228ZM10.9341 8.00897C10.9341 5.06401 13.2058 2.66966 15.9999 2.66966C18.794 2.66966 21.0657 5.06401 21.0657 8.00897V10.6786H10.9341V8.00897ZM8.40121 13.3483V16.0179C7.70229 16.0179 7.13477 16.6161 7.13477 17.3528C7.13477 18.0894 7.70229 18.6876 8.40121 18.6876H10.9341C11.633 18.6876 12.2006 18.0894 12.2006 17.3528C12.2006 16.6161 11.633 16.0179 10.9341 16.0179V13.3483H21.0657V16.0179C20.3668 16.0179 19.7992 16.6161 19.7992 17.3528C19.7992 18.0894 20.3668 18.6876 21.0657 18.6876H23.5986C24.2975 18.6876 24.865 18.0894 24.865 17.3528C24.865 16.6161 24.2975 16.0179 23.5986 16.0179V13.3483H28.5164L26.5138 32.3312C26.3721 33.6844 25.2893 34.7055 23.9975 34.7055H8.00228C6.70892 34.7055 5.62769 33.6844 5.48443 32.3312L3.48344 13.3483H8.40121Z" fill="#111111"/>
</svg>
