<svg width="39" height="35" viewBox="0 0 39 35" fill="none" xmlns="http://www.w3.org/2000/svg">
<g clip-path="url(#clip0_153_1838)">
<path d="M34.0834 0H4.91673C4.18507 0 3.59097 0.603245 3.59097 1.34615V18.8462C3.59097 18.8891 3.61086 18.9252 3.615 18.9673C1.96277 20.6702 0.939453 23.0032 0.939453 25.5769C0.939453 30.7731 5.10233 35 10.2198 35C14.4158 35 17.9647 32.1571 19.109 28.2692H34.0834C36.2759 28.2692 38.0607 26.457 38.0607 24.2308V4.03846C38.0607 1.81226 36.2759 0 34.0834 0ZM10.2198 32.3077C6.56481 32.3077 3.59097 29.2881 3.59097 25.5769C3.59097 21.8657 6.56481 18.8462 10.2198 18.8462C13.8747 18.8462 16.8485 21.8657 16.8485 25.5769C16.8485 29.2881 13.8747 32.3077 10.2198 32.3077ZM35.4092 16.1538H32.0948C30.9985 16.1538 30.1061 15.2477 30.1061 14.1346C30.1061 13.0215 30.9985 12.1154 32.0948 12.1154H35.4092V16.1538ZM35.4092 9.42308H32.0948C29.536 9.42308 27.4546 11.5365 27.4546 14.1346C27.4546 16.7327 29.536 18.8462 32.0948 18.8462H35.4092V24.2308C35.4092 24.9728 34.8142 25.5769 34.0834 25.5769H19.5001C19.5001 20.3808 15.3372 16.1538 10.2198 16.1538C8.79457 16.1538 7.45058 16.4904 6.24248 17.076V2.69231H34.0834C34.8142 2.69231 35.4092 3.29639 35.4092 4.03846V9.42308Z" fill="#111111"/>
<path d="M14.8599 25.577C14.8599 26.3199 14.2658 26.9232 13.5341 26.9232H11.5455V28.9424C11.5455 29.6853 10.9514 30.2886 10.2197 30.2886C9.48809 30.2886 8.89398 29.6853 8.89398 28.9424V26.9232H6.90535C6.1737 26.9232 5.57959 26.3199 5.57959 25.577C5.57959 24.8341 6.1737 24.2309 6.90535 24.2309H8.89398V22.2116C8.89398 21.4687 9.48809 20.8655 10.2197 20.8655C10.9514 20.8655 11.5455 21.4687 11.5455 22.2116V24.2309H13.5341C14.2658 24.2309 14.8599 24.8341 14.8599 25.577Z" fill="#111111"/>
</g>
<defs>
<clipPath id="clip0_153_1838">
<rect width="37.1212" height="35" fill="white" transform="translate(0.939453)"/>
</clipPath>
</defs>
</svg>
