<svg width="38" height="35" viewBox="0 0 38 35" fill="none" xmlns="http://www.w3.org/2000/svg">
<g clip-path="url(#clip0_287_87)">
<path d="M33.6439 0H4.47727C3.74562 0 3.15152 0.603245 3.15152 1.34615V18.8462C3.15152 18.8891 3.1714 18.9252 3.17554 18.9673C1.52332 20.6702 0.5 23.0032 0.5 25.5769C0.5 30.7731 4.66288 35 9.7803 35C13.9763 35 17.5252 32.1571 18.6695 28.2692H33.6439C35.8364 28.2692 37.6212 26.457 37.6212 24.2308V4.03846C37.6212 1.81226 35.8364 0 33.6439 0ZM9.7803 32.3077C6.12536 32.3077 3.15152 29.2881 3.15152 25.5769C3.15152 21.8657 6.12536 18.8462 9.7803 18.8462C13.4353 18.8462 16.4091 21.8657 16.4091 25.5769C16.4091 29.2881 13.4353 32.3077 9.7803 32.3077ZM34.9697 16.1538H31.6553C30.5591 16.1538 29.6667 15.2477 29.6667 14.1346C29.6667 13.0215 30.5591 12.1154 31.6553 12.1154H34.9697V16.1538ZM34.9697 9.42308H31.6553C29.0966 9.42308 27.0152 11.5365 27.0152 14.1346C27.0152 16.7327 29.0966 18.8462 31.6553 18.8462H34.9697V24.2308C34.9697 24.9728 34.3748 25.5769 33.6439 25.5769H19.0606C19.0606 20.3808 14.8977 16.1538 9.7803 16.1538C8.35511 16.1538 7.01113 16.4904 5.80303 17.076V2.69231H33.6439C34.3748 2.69231 34.9697 3.29639 34.9697 4.03846V9.42308Z" fill="white"/>
<path d="M14.4209 25.577C14.4209 26.3199 13.8268 26.9232 13.0952 26.9232H11.1065V28.9424C11.1065 29.6853 10.5124 30.2886 9.78078 30.2886C9.04912 30.2886 8.45502 29.6853 8.45502 28.9424V26.9232H6.46638C5.73473 26.9232 5.14062 26.3199 5.14062 25.577C5.14062 24.8341 5.73473 24.2309 6.46638 24.2309H8.45502V22.2116C8.45502 21.4687 9.04912 20.8655 9.78078 20.8655C10.5124 20.8655 11.1065 21.4687 11.1065 22.2116V24.2309H13.0952C13.8268 24.2309 14.4209 24.8341 14.4209 25.577Z" fill="white"/>
</g>
<defs>
<clipPath id="clip0_287_87">
<rect width="37.1212" height="35" fill="white" transform="translate(0.5)"/>
</clipPath>
</defs>
</svg>
