<svg width="39" height="35" viewBox="0 0 39 35" fill="none" xmlns="http://www.w3.org/2000/svg">
<g clip-path="url(#clip0_287_97)">
<path d="M35.5097 17.0516H31.0151C30.27 17.0516 29.6666 16.4492 29.6666 15.7054C29.6666 14.9617 30.27 14.3593 31.0151 14.3593H35.5097C35.7583 14.3593 35.9589 14.1582 35.9589 13.9108V3.14075C35.9589 2.89255 35.7575 2.69231 35.5097 2.69231H3.14617C2.89755 2.69231 2.69696 2.89339 2.69696 3.14075V13.91C2.69696 14.1582 2.89839 14.3584 3.14617 14.3584H7.64083C8.38587 14.3584 8.98931 14.9608 8.98931 15.7046C8.98931 16.4483 8.38587 17.0507 7.64083 17.0507H3.14617C1.41253 17.0406 0.00927081 15.6406 0 13.91V3.14075C0.0101136 1.4101 1.41253 0.0100962 3.14617 0H35.5097C37.2434 0.0100962 38.6466 1.4101 38.6559 3.14075V13.91C38.6458 15.6406 37.2434 17.0415 35.5097 17.0507V17.0516Z" fill="white"/>
<path d="M29.2171 35H9.43914C7.7055 34.9899 6.30224 33.5899 6.29297 31.8592V8.52535C6.30224 7.78581 6.90063 7.18845 7.64145 7.1792H31.0148C31.7556 7.18845 32.354 7.78581 32.3633 8.52535V31.8592C32.3532 33.5899 30.9508 34.9907 29.2171 35ZM8.98993 9.87151V31.8592C8.98993 32.1074 9.19136 32.3077 9.43914 32.3077H29.2171C29.4658 32.3077 29.6663 32.1066 29.6663 31.8592V9.87151H8.98993Z" fill="white"/>
<path d="M23.5177 24.3385C22.7769 24.3292 22.1785 23.7319 22.1692 22.9923V19.4023C22.1793 18.996 21.8574 18.6586 21.4503 18.6485C21.4444 18.6485 21.4385 18.6485 21.4318 18.6485C21.0146 18.6485 20.6766 18.9859 20.6766 19.4023V20.8023C20.814 22.7004 19.3838 24.3511 17.4824 24.4883C15.581 24.6254 13.9275 23.1976 13.7901 21.2996C13.7783 21.1338 13.7783 20.9681 13.7901 20.8023V17.2123C13.7901 16.4685 14.3935 15.8661 15.1386 15.8661C15.8836 15.8661 16.4871 16.4685 16.4871 17.2123V20.8023C16.4769 21.2087 16.7989 21.5461 17.206 21.5562C17.2119 21.5562 17.2178 21.5562 17.2245 21.5562C17.6417 21.5562 17.9797 21.2188 17.9797 20.8023V19.4023C17.8423 17.5042 19.2725 15.8535 21.1739 15.7164C23.0752 15.5792 24.7288 17.007 24.8662 18.9051C24.878 19.0708 24.878 19.2366 24.8662 19.4023V22.9923C24.8662 23.7361 24.2627 24.3385 23.5177 24.3385Z" fill="white"/>
<path d="M25.6211 21.5385H23.5174C22.7724 21.5385 22.1689 20.9361 22.1689 20.1923C22.1689 19.4486 22.7724 18.8462 23.5174 18.8462H25.6211C26.3661 18.8462 26.9695 19.4486 26.9695 20.1923C26.9695 20.9361 26.3661 21.5385 25.6211 21.5385Z" fill="white"/>
<path d="M15.1396 21.5385H13.036C12.2909 21.5385 11.6875 20.9361 11.6875 20.1923C11.6875 19.4486 12.2909 18.8462 13.036 18.8462H15.1396C15.8846 18.8462 16.4881 19.4486 16.4881 20.1923C16.4881 20.9361 15.8846 21.5385 15.1396 21.5385Z" fill="white"/>
<path d="M32.8132 9.87151H5.8436C5.09856 9.87151 4.49512 9.2691 4.49512 8.52535C4.49512 7.7816 5.09856 7.1792 5.8436 7.1792H32.8132C33.5582 7.1792 34.1617 7.7816 34.1617 8.52535C34.1617 9.2691 33.5582 9.87151 32.8132 9.87151Z" fill="white"/>
</g>
<defs>
<clipPath id="clip0_287_97">
<rect width="38.6567" height="35" fill="white"/>
</clipPath>
</defs>
</svg>
