<svg width="40" height="35" viewBox="0 0 40 35" fill="none" xmlns="http://www.w3.org/2000/svg">
<path d="M36.1816 17.0516H31.6869C30.9419 17.0516 30.3385 16.4492 30.3385 15.7054C30.3385 14.9617 30.9419 14.3593 31.6869 14.3593H36.1816C36.4302 14.3593 36.6308 14.1582 36.6308 13.9108V3.14075C36.6308 2.89255 36.4294 2.69231 36.1816 2.69231H3.81805C3.56942 2.69231 3.36884 2.89339 3.36884 3.14075V13.91C3.36884 14.1582 3.57027 14.3584 3.81805 14.3584H8.31271C9.05774 14.3584 9.66119 14.9608 9.66119 15.7046C9.66119 16.4483 9.05774 17.0507 8.31271 17.0507H3.81805C2.08441 17.0406 0.681146 15.6406 0.671875 13.91V3.14075C0.681989 1.4101 2.08441 0.0100962 3.81805 0H36.1816C37.9152 0.0100962 39.3185 1.4101 39.3278 3.14075V13.91C39.3177 15.6406 37.9152 17.0415 36.1816 17.0507V17.0516Z" fill="#111111"/>
<path d="M29.889 35H10.111C8.37738 34.9899 6.97411 33.5899 6.96484 31.8592V8.52535C6.97411 7.78581 7.5725 7.18845 8.31332 7.1792H31.6867C32.4275 7.18845 33.0259 7.78581 33.0352 8.52535V31.8592C33.0251 33.5899 31.6226 34.9907 29.889 35ZM9.6618 9.87151V31.8592C9.6618 32.1074 9.86323 32.3077 10.111 32.3077H29.889C30.1376 32.3077 30.3382 32.1066 30.3382 31.8592V9.87151H9.6618Z" fill="#111111"/>
<path d="M24.1896 24.3385C23.4488 24.3292 22.8504 23.7319 22.8411 22.9923V19.4023C22.8512 18.996 22.5293 18.6586 22.1222 18.6485C22.1163 18.6485 22.1104 18.6485 22.1036 18.6485C21.6865 18.6485 21.3485 18.9859 21.3485 19.4023V20.8023C21.4859 22.7004 20.0556 24.3511 18.1543 24.4883C16.2529 24.6254 14.5994 23.1976 14.462 21.2996C14.4502 21.1338 14.4502 20.9681 14.462 20.8023V17.2123C14.462 16.4685 15.0654 15.8661 15.8105 15.8661C16.5555 15.8661 17.1589 16.4685 17.1589 17.2123V20.8023C17.1488 21.2087 17.4708 21.5461 17.8778 21.5562C17.8837 21.5562 17.8896 21.5562 17.8964 21.5562C18.3136 21.5562 18.6515 21.2188 18.6515 20.8023V19.4023C18.5142 17.5042 19.9444 15.8535 21.8457 15.7164C23.7471 15.5792 25.4007 17.007 25.5381 18.9051C25.5499 19.0708 25.5499 19.2366 25.5381 19.4023V22.9923C25.5381 23.7361 24.9346 24.3385 24.1896 24.3385Z" fill="#111111"/>
<path d="M26.2929 21.5385H24.1893C23.4443 21.5385 22.8408 20.9361 22.8408 20.1923C22.8408 19.4486 23.4443 18.8462 24.1893 18.8462H26.2929C27.038 18.8462 27.6414 19.4486 27.6414 20.1923C27.6414 20.9361 27.038 21.5385 26.2929 21.5385Z" fill="#111111"/>
<path d="M15.8115 21.5385H13.7079C12.9628 21.5385 12.3594 20.9361 12.3594 20.1923C12.3594 19.4486 12.9628 18.8462 13.7079 18.8462H15.8115C16.5565 18.8462 17.16 19.4486 17.16 20.1923C17.16 20.9361 16.5565 21.5385 15.8115 21.5385Z" fill="#111111"/>
<path d="M33.4851 9.87151H6.51547C5.77044 9.87151 5.16699 9.2691 5.16699 8.52535C5.16699 7.7816 5.77044 7.1792 6.51547 7.1792H33.4851C34.2301 7.1792 34.8336 7.7816 34.8336 8.52535C34.8336 9.2691 34.2301 9.87151 33.4851 9.87151Z" fill="#111111"/>
</svg>
